<?xml version="1.0" encoding="UTF-8"?>
<svg id="AeIconSVG" data-name="AeIconSVG" xmlns="http://www.w3.org/2000/svg" viewBox="0 0 240 234">
	<defs>
	</defs>
	<path class="cls-1"
		d="M183.8,110.8c.4,1.2.6,2.4.6,3.7v1c-.7.5-1.5.7-2.3.8-1.2.1-3.1.1-5.7.1h-21.1c.3-2.5,1-4.9,2.2-7.2,2.6-5,7.8-7.9,13.3-7.6,5.9-.2,11.2,3.6,13,9.2ZM240,42.5v149c0,23.5-19,42.5-42.5,42.5H42.5c-23.5,0-42.5-19-42.5-42.5V42.5C0,19,19,0,42.5,0h155c23.5,0,42.5,19,42.5,42.5ZM128.1,163l-36.5-102c-.1-.5-.6-.8-1.3-.8h-25.9c-.5.1-.9.6-.8,1.1,0,2.2-.2,4.4-.6,6.5-.4,1.2-.7,2.1-1,3.1l-32.2,92.3c-.3,1.2,0,1.8,1.1,1.8h18.8c.9.1,1.7-.5,1.9-1.4l7.6-23.6h37.2v-.5l8.2,24c.2.7.9,1.2,1.6,1.1h20.9c1,0,1.3-.5,1-1.6ZM205.4,119c0-4.1-.6-8.2-1.9-12.2-1.3-4.2-3.4-8-6-11.4-2.8-3.5-6.4-6.2-10.5-8-4.9-2.2-10.2-3.2-15.5-3.1-6.4,0-12,.8-16.7,3.1-4.7,2.3-8.8,5.5-12.1,9.5-3.4,4.1-5.9,8.7-7.5,13.7-1.7,5.2-2.5,10.5-2.5,15.9,0,5,.7,9.9,2.1,14.6,1.4,4.8,3.7,9.2,6.9,13.1,3.4,4.1,7.7,7.4,12.6,9.5,5.2,2.3,11.6,3.5,19.2,3.5,4.8.1,9.5-.3,14.2-1.2,3.5-.6,6.8-1.6,10-3,.3-.2.5-.4.7-.7.1-.4.2-.8.2-1.2v-15.3c0-1-.3-1.2-.8-.8-2.8,1.1-5.8,1.9-8.9,2.3-3.4.7-6.9,1-10.4,1.1-4.4.1-8.8-.8-12.8-2.5-3-1.2-5.5-3.3-7.3-6-1.7-2.7-2.7-5.8-3.1-8.9h31.7c2.6,0,5,.4,7.3.4s4.2-.1,5.8-.3c1.6-.1,2.7-.2,3.3-.2.7,0,1.3-.6,1.4-1.3.1-.9.2-2.3.4-4.2.1-1.9.2-4,.2-6.4ZM85.4,104.3c-1-3.1-1.9-6.1-2.9-9.2-1-3.1-1.9-6-2.7-8.9-.8-2.8-1.5-5.4-2.2-7.8h-.2c-.9,4.3-2,8.6-3.4,12.9-1.5,4.8-3,9.8-4.6,14.8-1.3,5.1-2.9,9.8-4.4,14h25.4c-.6-2.1-1.4-4.6-2.3-7.2-.9-2.7-1.8-5.6-2.7-8.6Z" />
</svg>