<svg id="PremiereIconSVG" data-name="Layer 1" xmlns="http://www.w3.org/2000/svg" viewBox="0 0 240 234">
	<path class="cls-1"
		d="M108.5,86.8c1.6,2.7,2.4,5.8,2.3,8.9,0,4.4-1,7.8-3.1,10.3-2.2,2.5-5,4.4-8.2,5.3-3.7,1.2-7.6,1.8-11.5,1.8h-5.3c-1.2,0-2.5-.1-3.9-.2v-33.6h0c.7-.1,2.1-.2,4.1-.1,1.9-.1,4.2-.1,6.8-.1,4.1-.1,8.1.5,11.8,2,2.9,1.1,5.3,3.1,7,5.7ZM240,42.5v149c0,23.5-19,42.5-42.5,42.5H42.5c-23.5,0-42.5-19-42.5-42.5V42.5C0,19,19,0,42.5,0h155c23.5,0,42.5,19,42.5,42.5ZM132.6,95c0-4.5-.8-8.8-2.3-13-1.6-4.3-4.1-8.2-7.3-11.4-3.8-3.7-8.4-6.5-13.4-8.2-5.6-2.1-12.4-3.1-20.6-3.1-3,0-6,0-9.1.1-3.1.1-6,.1-8.7.2-2.7.1-5.2.1-7.6.2-2.3.1-3.9.1-5.6.1-.7,0-1,.4-1,1.1v102.9s0,0,0,0v.1s0-.1,0-.1c0,.9.4,1.3,1.2,1.3h19.4c.7-.1,1.2-.7,1.1-1.4v-32.1c1.9,0,3.3,0,4.3.1,1,.1,2.6.1,5,.1,8.2,0,15.7-.9,22.5-3.4,6.5-2.4,12.1-6.6,16.1-12.2,4-5.6,6-12.7,6-21.3ZM195.2,84.6c-.1-.7-.7-1.2-1.4-1.1-5.3,0-10.6,1.3-15.2,3.9-4.1,2.2-7.7,5.1-10.7,8.6,0-1.3-.1-2.5-.2-3.6-.1-1-.3-2.1-.5-3.1-.1-.9-.3-1.7-.6-2.5-.3-.9-1.1-1.6-2.1-1.6h-17.5c-.1-.1-.3-.1-.3,0-.5.1-.8.6-.7,1.1.2,2.3.4,4.5.4,6.8.1,2.6.1,5.2.2,7.8.1,2.6.1,5.1.1,7.5v55.8c.1.8.8,1.3,1.6,1.2h19.7c.9,0,1.3-.4,1.3-1.4v-51c1.4-1.6,3.2-2.8,5.1-3.7,2.7-1.2,5.5-2.1,8.4-2.7,3.5-.8,7.2-1.1,10.8-1,1.1,0,1.6-.3,1.6-1.1v-19.9Z" />
</svg>