<svg id="FigmaLogoSVG" data-name="FigmaLogoSVG" xmlns="http://www.w3.org/2000/svg" viewBox="0 0 234.7 234.7">

    <path class="cls-1"
        d="M186.91,0H47.79C21.39,0,0,21.39,0,47.79v139.12c0,26.4,21.4,47.79,47.79,47.79h139.12c26.4,0,47.79-21.4,47.79-47.79V47.79c0-26.4-21.4-47.79-47.79-47.79ZM229.7,186.91c0,23.59-19.2,42.79-42.79,42.79H47.79c-23.59,0-42.79-19.2-42.79-42.79V47.79C5,24.2,24.2,5,47.79,5h139.12c23.59,0,42.79,19.2,42.79,42.79v139.12Z" />
    <path class="cls-1"
        d="M160.19,78.54c0-12.47-10.15-22.62-22.62-22.62h-40.47c-12.47,0-22.62,10.15-22.62,22.62,0,8.85,5.11,16.52,12.53,20.23-7.43,3.71-12.53,11.39-12.53,20.23s5.11,16.52,12.53,20.23c-7.43,3.71-12.53,11.39-12.53,20.23,0,12.47,10.15,22.62,22.62,22.62s22.62-10.15,22.62-22.62v-26.61c4.14,5.32,10.6,8.76,17.85,8.76,12.47,0,22.62-10.14,22.62-22.62,0-8.85-5.11-16.51-12.52-20.23,0,0,0,0,0,0h0s0,0,0,0c7.42-3.71,12.52-11.39,12.52-20.23ZM114.97,159.48c0,9.84-8.01,17.85-17.85,17.85s-17.85-8.01-17.85-17.85,8.01-17.85,17.85-17.85h17.85v17.85ZM114.97,136.87h-17.85c-9.84,0-17.85-8.01-17.85-17.85s8.01-17.85,17.85-17.85h17.85v35.71ZM114.97,96.39h-17.85c-9.84,0-17.85-8.01-17.85-17.85s8.01-17.85,17.85-17.85h17.85v35.71ZM155.43,119c0,9.84-8.01,17.85-17.85,17.85s-17.85-8.01-17.85-17.85,8.01-17.85,17.85-17.85,17.85,8.01,17.85,17.85ZM119.73,105.15v-4h4c-1.49,1.16-2.84,2.5-4,4ZM137.58,96.39h-17.85v-35.71h17.85c9.84,0,17.85,8.01,17.85,17.85s-8.01,17.85-17.85,17.85Z" />
</svg>